<?xml version="1.0" encoding="UTF-8"?>
<svg version="1.1" xmlns="http://www.w3.org/2000/svg" width="512" height="512">
<path d="M0 0 C1.18432617 -0.02416992 1.18432617 -0.02416992 2.39257812 -0.04882812 C7.0889846 -0.05276476 10.09731435 0.32650013 13.9375 3.3125 C17.14129581 6.62677153 16.9375 7.30983338 16.9375 12.3125 C22.5475 12.3125 28.1575 12.3125 33.9375 12.3125 C34.2675 10.0025 34.5975 7.6925 34.9375 5.3125 C38.21301097 1.64175392 39.71758284 0.52391729 44.56640625 -0.31640625 C61.33349546 -0.03334715 74.59479183 4.87710905 87.09765625 16.3828125 C100.15335186 30.07604739 103.33867956 46.72228814 103.0625 65.03125 C103.05114014 66.79909851 103.05114014 66.79909851 103.03955078 68.60266113 C103.00730833 73.58099453 102.95130382 78.55898129 102.89648438 83.53710938 C102.46278331 126.74743111 110.33824674 162.07189648 141.11621094 193.84179688 C148.57388098 201.38236676 156.24001454 208.23025844 164.9375 214.3125 C165.83597656 215.05628906 166.73445313 215.80007812 167.66015625 216.56640625 C172.26339442 219.0189062 176.06905776 218.66299377 181.1875 218.4375 C209.94115149 217.83702597 239.8543036 223.3596693 261.515625 243.67578125 C276.21760522 259.68196939 278.76265214 278.4515859 278.09912109 299.45800781 C277.00737697 318.73999007 263.50005441 336.27046742 253.20532227 351.80834961 C237.4811423 374.05375438 237.4811423 374.05375438 230.76171875 399.8671875 C230.73787109 400.72957031 230.71402344 401.59195312 230.68945312 402.48046875 C230.64667604 404.27710629 230.61532146 406.07405412 230.59570312 407.87109375 C230.41598365 413.48001323 229.7365033 416.89762914 225.9375 421.3125 C221.67694999 424.15286668 217.93841856 423.94247574 212.9375 423.3125 C209.49296539 421.65174224 207.62978714 420.43334584 205.625 417.1875 C200.22614918 394.61048748 209.38952052 372.38636742 220.9375 353.3125 C225.26304281 346.47978807 229.74592905 339.74529081 234.2734375 333.04516602 C238.61438879 326.59447015 242.76566111 320.11159946 246.4609375 313.265625 C246.7858316 312.66965515 247.11072571 312.0736853 247.44546509 311.45965576 C251.08416726 304.52922378 252.30703229 298.19039638 252.25 290.5 C252.24436035 289.70537354 252.2387207 288.91074707 252.23291016 288.09204102 C252.00707892 277.15264183 248.93197132 268.22220102 241.00390625 260.40625 C227.60010219 249.19132403 211.07165993 246.23763114 194.1875 244.625 C192.26550781 244.43067383 192.26550781 244.43067383 190.3046875 244.23242188 C187.18298525 243.91792202 184.06072491 243.61142992 180.9375 243.3125 C180.93901888 243.85999407 180.94053776 244.40748814 180.94210267 244.97157294 C181.03161855 277.42183884 181.10024801 309.87207206 181.14176132 342.32243297 C181.14676413 346.21894315 181.15194142 350.11545308 181.15722656 354.01196289 C181.1582758 354.78768656 181.15932505 355.56341023 181.16040608 356.36264067 C181.17781045 368.92241152 181.20934831 381.48210911 181.24611118 394.04183651 C181.28351973 406.92965717 181.30573567 419.81743947 181.31385398 432.70531219 C181.31934195 440.65759817 181.33667397 448.60967711 181.36916587 456.56189936 C181.39281292 462.66009885 181.39532007 468.7581203 181.38993073 474.85637093 C181.39103223 477.35774511 181.39900283 479.85912704 181.4143219 482.36045456 C181.43420414 485.77396325 181.4294447 489.18658396 181.41851807 492.60011292 C181.43016943 493.59136958 181.4418208 494.58262625 181.45382524 495.603921 C181.40116827 501.68418559 180.62614333 505.40168531 176.9375 510.3125 C173.89882853 512.57772938 171.16665966 512.56531636 167.44093323 512.57319641 C166.32357788 512.58028122 165.20622253 512.58736603 164.05500793 512.59466553 C162.83359604 512.59218811 161.61218414 512.58971069 160.35375977 512.5871582 C159.06398224 512.59226913 157.77420471 512.59738007 156.44534302 512.60264587 C152.9102041 512.61603238 149.37517211 512.61661495 145.84001279 512.61408257 C142.88770466 512.61301263 139.93541815 512.61789682 136.98311466 512.622688 C130.01761663 512.63378195 123.05217252 512.63422121 116.08666992 512.62817383 C108.9032107 512.62213307 101.7199473 512.63444777 94.53652149 512.6557439 C88.36654969 512.67336227 82.1966402 512.6793609 76.02664417 512.67610615 C72.34269094 512.67429353 68.65887741 512.67692726 64.97494698 512.69082069 C60.86671365 512.7057347 56.75887871 512.6964269 52.65063477 512.68481445 C51.4312471 512.69245819 50.21185944 512.70010193 48.95552063 512.70797729 C47.83534546 512.70096298 46.71517029 512.69394867 45.56105042 512.6867218 C44.59006692 512.68688954 43.61908342 512.68705729 42.61867619 512.68723011 C39.42780232 512.24126295 37.5437839 511.1747646 34.9375 509.3125 C32.62755605 506.01258006 32.9375 504.66140362 32.9375 500.3125 C27.6575 500.3125 22.3775 500.3125 16.9375 500.3125 C16.6075 502.6225 16.2775 504.9325 15.9375 507.3125 C13.22311662 510.78888973 11.62425228 512.0298414 7.2802887 512.75778389 C3.8904449 512.95953877 0.53833328 512.9763449 -2.85742188 512.94360352 C-4.14588516 512.95075882 -5.43434845 512.95791412 -6.76185608 512.96528625 C-10.2847823 512.98375985 -13.80694916 512.97088823 -17.32984352 512.95119596 C-21.02259789 512.93477419 -24.7153055 512.94362724 -28.40808105 512.94871521 C-34.60860277 512.95323226 -40.80882244 512.93739073 -47.00927734 512.90942383 C-54.17012916 512.87737341 -61.33043632 512.87738876 -68.49132681 512.8946386 C-75.38984069 512.9105219 -82.28815555 512.90375862 -89.18666077 512.88670158 C-92.11797914 512.87984262 -95.04913744 512.88085157 -97.98045349 512.88824654 C-102.0764676 512.89735521 -106.17164555 512.87333555 -110.26757812 512.84594727 C-111.48022842 512.85247314 -112.69287872 512.85899902 -113.942276 512.86572266 C-124.54005313 512.74517574 -124.54005313 512.74517574 -129.0625 508.3125 C-131.82065953 503.46149163 -131.33463283 498.25312534 -131.30300903 492.84062195 C-131.30471788 491.77462621 -131.30642673 490.70863047 -131.30818737 489.61033183 C-131.31148577 486.03271503 -131.30047262 482.45528512 -131.28955078 478.87768555 C-131.28898674 476.3154043 -131.28930308 473.75312273 -131.29043579 471.19084167 C-131.29089146 465.67150679 -131.2852128 460.15223225 -131.27396011 454.63290977 C-131.25770128 446.6529237 -131.25249672 438.67296049 -131.24998413 430.69295964 C-131.24560763 417.74573292 -131.23229975 404.7985314 -131.21337891 391.85131836 C-131.19501895 379.27482225 -131.18086301 366.69833298 -131.17236328 354.12182617 C-131.17183783 353.34652094 -131.17131239 352.57121571 -131.17077102 351.77241638 C-131.16816093 347.88291106 -131.16563352 343.99340571 -131.16314721 340.10390031 C-131.14241611 307.84008189 -131.1071918 275.57629444 -131.0625 243.3125 C-135.39007812 243.76915718 -139.71658294 244.2353172 -144.04296875 244.703125 C-145.26109253 244.83154785 -146.47921631 244.9599707 -147.73425293 245.09228516 C-164.02713145 246.86618436 -184.12012975 250.72974342 -195.0625 264.3125 C-202.23787097 276.15580461 -204.05525137 288.75630357 -201.484375 302.375 C-200.54683043 305.17058744 -199.40658529 307.68693066 -198.0625 310.3125 C-197.49917969 311.42753906 -196.93585938 312.54257812 -196.35546875 313.69140625 C-191.82948094 322.27016433 -186.48140128 330.27829161 -181.0625 338.3125 C-167.43859957 358.51209804 -154.9454909 378.64190714 -154.6875 403.6875 C-154.67348145 404.63947266 -154.65946289 405.59144531 -154.64501953 406.57226562 C-154.68171825 411.89828529 -155.05890215 415.72306096 -158.0625 420.3125 C-161.84751499 423.75342272 -165.77810657 423.82138729 -170.6875 423.66796875 C-174.10655475 423.15623523 -175.79000658 421.8690551 -178.0625 419.3125 C-179.77361045 416.42570811 -180.30903749 414.31016726 -180.3359375 410.96875 C-180.35342041 410.14084961 -180.37090332 409.31294922 -180.38891602 408.45996094 C-180.40494873 407.58629883 -180.42098145 406.71263672 -180.4375 405.8125 C-180.7398679 397.65512416 -181.68131691 390.82959454 -185.0625 383.3125 C-185.743125 381.69794922 -185.743125 381.69794922 -186.4375 380.05078125 C-191.39582927 368.97243971 -198.35411938 359.05217702 -205.04760742 348.97729492 C-220.76234144 325.30048511 -232.86370217 303.16355922 -227.33984375 273.765625 C-223.14143892 257.10798642 -214.32782586 244.03885854 -200.0625 234.3125 C-180.73482329 222.76802044 -157.89935914 217.56225848 -135.47558594 218.63305664 C-126.24815978 219.00348382 -119.50033204 219.18780548 -112.37109375 212.62890625 C-111.60925781 211.86449219 -110.84742187 211.10007813 -110.0625 210.3125 C-108.34122178 208.96899845 -106.61167191 207.63604291 -104.875 206.3125 C-78.31384131 184.19720049 -57.12456962 154.52475128 -53.7722168 119.25878906 C-53.13525921 110.56464627 -53.00846323 101.92791639 -53.0703125 93.2109375 C-53.08204247 91.45074783 -53.08204247 91.45074783 -53.0940094 89.65499878 C-53.13062977 84.76594225 -53.17258294 79.87709616 -53.23388672 74.98828125 C-53.48954861 53.36330708 -53.17493261 32.84343735 -37.0625 16.3125 C-26.15247333 6.91475426 -14.61756533 -0.0599572 0 0 Z " fill="#F9B43F" transform="translate(231.0625,-0.3125)"/>
<path d="M0 0 C1.18432617 -0.02416992 1.18432617 -0.02416992 2.39257812 -0.04882812 C7.0889846 -0.05276476 10.09731435 0.32650013 13.9375 3.3125 C17.14129581 6.62677153 16.9375 7.30983338 16.9375 12.3125 C22.5475 12.3125 28.1575 12.3125 33.9375 12.3125 C34.2675 10.0025 34.5975 7.6925 34.9375 5.3125 C38.21301097 1.64175392 39.71758284 0.52391729 44.56640625 -0.31640625 C61.33349546 -0.03334715 74.59479183 4.87710905 87.09765625 16.3828125 C100.15335186 30.07604739 103.33867956 46.72228814 103.0625 65.03125 C103.05114014 66.79909851 103.05114014 66.79909851 103.03955078 68.60266113 C103.00730833 73.58099453 102.95130382 78.55898129 102.89648438 83.53710938 C102.46278331 126.74743111 110.33824674 162.07189648 141.11621094 193.84179688 C148.57388098 201.38236676 156.24001454 208.23025844 164.9375 214.3125 C165.83597656 215.05628906 166.73445313 215.80007812 167.66015625 216.56640625 C172.26339442 219.0189062 176.06905776 218.66299377 181.1875 218.4375 C209.94115149 217.83702597 239.8543036 223.3596693 261.515625 243.67578125 C276.21760522 259.68196939 278.76265214 278.4515859 278.09912109 299.45800781 C277.00737697 318.73999007 263.50005441 336.27046742 253.20532227 351.80834961 C237.4811423 374.05375438 237.4811423 374.05375438 230.76171875 399.8671875 C230.73787109 400.72957031 230.71402344 401.59195312 230.68945312 402.48046875 C230.64667604 404.27710629 230.61532146 406.07405412 230.59570312 407.87109375 C230.41598365 413.48001323 229.7365033 416.89762914 225.9375 421.3125 C221.67694999 424.15286668 217.93841856 423.94247574 212.9375 423.3125 C209.49296539 421.65174224 207.62978714 420.43334584 205.625 417.1875 C200.22614918 394.61048748 209.38952052 372.38636742 220.9375 353.3125 C225.26304281 346.47978807 229.74592905 339.74529081 234.2734375 333.04516602 C238.61438879 326.59447015 242.76566111 320.11159946 246.4609375 313.265625 C246.7858316 312.66965515 247.11072571 312.0736853 247.44546509 311.45965576 C251.08416726 304.52922378 252.30703229 298.19039638 252.25 290.5 C252.24436035 289.70537354 252.2387207 288.91074707 252.23291016 288.09204102 C252.00707892 277.15264183 248.93197132 268.22220102 241.00390625 260.40625 C227.60010219 249.19132403 211.07165993 246.23763114 194.1875 244.625 C192.26550781 244.43067383 192.26550781 244.43067383 190.3046875 244.23242188 C187.18298525 243.91792202 184.06072491 243.61142992 180.9375 243.3125 C180.93901888 243.85999407 180.94053776 244.40748814 180.94210267 244.97157294 C181.03161855 277.42183884 181.10024801 309.87207206 181.14176132 342.32243297 C181.14676413 346.21894315 181.15194142 350.11545308 181.15722656 354.01196289 C181.1582758 354.78768656 181.15932505 355.56341023 181.16040608 356.36264067 C181.17781045 368.92241152 181.20934831 381.48210911 181.24611118 394.04183651 C181.28351973 406.92965717 181.30573567 419.81743947 181.31385398 432.70531219 C181.31934195 440.65759817 181.33667397 448.60967711 181.36916587 456.56189936 C181.39281292 462.66009885 181.39532007 468.7581203 181.38993073 474.85637093 C181.39103223 477.35774511 181.39900283 479.85912704 181.4143219 482.36045456 C181.43420414 485.77396325 181.4294447 489.18658396 181.41851807 492.60011292 C181.43016943 493.59136958 181.4418208 494.58262625 181.45382524 495.603921 C181.40116827 501.68418559 180.62614333 505.40168531 176.9375 510.3125 C173.89882853 512.57772938 171.16665966 512.56531636 167.44093323 512.57319641 C166.32357788 512.58028122 165.20622253 512.58736603 164.05500793 512.59466553 C162.83359604 512.59218811 161.61218414 512.58971069 160.35375977 512.5871582 C159.06398224 512.59226913 157.77420471 512.59738007 156.44534302 512.60264587 C152.9102041 512.61603238 149.37517211 512.61661495 145.84001279 512.61408257 C142.88770466 512.61301263 139.93541815 512.61789682 136.98311466 512.622688 C130.01761663 512.63378195 123.05217252 512.63422121 116.08666992 512.62817383 C108.9032107 512.62213307 101.7199473 512.63444777 94.53652149 512.6557439 C88.36654969 512.67336227 82.1966402 512.6793609 76.02664417 512.67610615 C72.34269094 512.67429353 68.65887741 512.67692726 64.97494698 512.69082069 C60.86671365 512.7057347 56.75887871 512.6964269 52.65063477 512.68481445 C51.4312471 512.69245819 50.21185944 512.70010193 48.95552063 512.70797729 C47.83534546 512.70096298 46.71517029 512.69394867 45.56105042 512.6867218 C44.59006692 512.68688954 43.61908342 512.68705729 42.61867619 512.68723011 C38.81790424 512.15602157 35.99455423 510.67156973 33.625 507.625 C32.17676221 502.7536547 32.4435544 498.69034824 34.125 494 C36.28592198 490.7958743 37.38753697 489.87130885 40.9375 488.3125 C44.64631337 487.88158496 48.33194128 487.93387688 52.06176758 487.97192383 C53.18415833 487.97148575 54.30654907 487.97104767 55.46295166 487.97059631 C59.16948902 487.97268482 62.87557299 487.99601961 66.58203125 488.01953125 C69.15321099 488.02512696 71.72439392 488.02939718 74.295578 488.03239441 C80.36933562 488.04267493 86.44290638 488.06631444 92.51659364 488.09644288 C99.43312091 488.13000553 106.34965606 488.14647756 113.26624453 488.16152918 C127.49008352 488.19286468 141.71378599 488.2456135 155.9375 488.3125 C156.17519561 456.66820428 156.3307439 425.024836 156.372363 393.37971638 C156.37735375 389.63986199 156.38304147 385.90000896 156.38916016 382.16015625 C156.39036651 381.41565028 156.39157286 380.67114431 156.39281577 379.90407756 C156.4139842 367.86457601 156.49155303 355.82606965 156.59013933 343.78698155 C156.69011248 331.42442671 156.72907332 319.06275311 156.71194887 306.69980073 C156.70329607 299.07644857 156.74165477 291.45635877 156.84106803 283.83363739 C156.91231726 277.97855313 156.89848229 272.12555863 156.85362434 266.27015305 C156.84842219 263.87560492 156.87041465 261.48081324 156.92216301 259.0868187 C157.57460909 247.05565418 157.57460909 247.05565418 153.36588097 236.20048237 C149.62361613 232.5416512 145.43289058 229.9297521 140.85664272 227.43954515 C138.00362355 225.76406714 135.77995713 223.7043561 133.375 221.4375 C130.7181237 218.96278411 128.05529003 216.55478674 125.25 214.25 C121.38608891 210.94063171 118.17998597 207.22309745 114.9375 203.3125 C114.50808105 202.81137695 114.07866211 202.31025391 113.63623047 201.79394531 C92.43407747 177.0156133 77.9375 145.34903184 77.9375 112.3125 C42.9575 112.3125 7.9775 112.3125 -28.0625 112.3125 C-28.3925 116.9325 -28.7225 121.5525 -29.0625 126.3125 C-31.3544725 144.1865877 -37.42920306 160.57288381 -46.0625 176.3125 C-46.56652344 177.23546875 -47.07054687 178.1584375 -47.58984375 179.109375 C-53.26071334 188.97448886 -60.37183651 197.79579705 -68.07421875 206.13671875 C-69.66956821 207.88251374 -71.16185732 209.64538102 -72.625 211.5 C-75.80566385 215.16999675 -79.34894734 218.19434339 -83.0625 221.3125 C-84.46435547 222.51132812 -84.46435547 222.51132812 -85.89453125 223.734375 C-103.10113636 238.3125 -103.10113636 238.3125 -107.0625 238.3125 C-107.0625 320.8125 -107.0625 403.3125 -107.0625 488.3125 C-69.1125 488.3125 -31.1625 488.3125 7.9375 488.3125 C15.09659091 491.89204545 15.09659091 491.89204545 16.9375 497.3125 C17.58247331 500.90285145 17.76148807 503.89951306 15.8828125 507.12109375 C14.11411579 509.30318407 12.46620054 511.04814973 9.9375 512.3125 C8.18999274 512.41419425 6.43861819 512.4519683 4.68817139 512.45967102 C3.57501053 512.46682632 2.46184967 512.47398163 1.31495667 512.48135376 C0.08792526 512.48404266 -1.13910614 512.48673157 -2.40332031 512.48950195 C-3.69119949 512.49607315 -4.97907867 512.50264435 -6.3059845 512.50941467 C-9.84540601 512.52682998 -13.38481402 512.53737819 -16.92426777 512.5456202 C-19.13579098 512.55076999 -21.34731001 512.55684578 -23.55883026 512.56313133 C-30.47864253 512.58218622 -37.39844413 512.59641585 -44.3182776 512.6047433 C-52.30495422 512.61451325 -60.2913535 512.64082492 -68.27793241 512.68124419 C-74.45126621 512.71141397 -80.62452057 512.72621304 -86.79792666 512.72952431 C-90.48480702 512.73187413 -94.1713912 512.74082489 -97.85819244 512.76598549 C-101.97367269 512.79361717 -106.08853444 512.78943249 -110.20410156 512.7824707 C-111.42303604 512.79528076 -112.64197052 512.80809082 -113.89784241 512.82128906 C-124.54507768 512.7555386 -124.54507768 512.7555386 -129.0625 508.3125 C-131.8201133 503.46078307 -131.3346355 498.25358316 -131.30300903 492.84062195 C-131.30471788 491.77462621 -131.30642673 490.70863047 -131.30818737 489.61033183 C-131.31148577 486.03271503 -131.30047262 482.45528512 -131.28955078 478.87768555 C-131.28898674 476.3154043 -131.28930308 473.75312273 -131.29043579 471.19084167 C-131.29089146 465.67150679 -131.2852128 460.15223225 -131.27396011 454.63290977 C-131.25770128 446.6529237 -131.25249672 438.67296049 -131.24998413 430.69295964 C-131.24560763 417.74573292 -131.23229975 404.7985314 -131.21337891 391.85131836 C-131.19501895 379.27482225 -131.18086301 366.69833298 -131.17236328 354.12182617 C-131.17183783 353.34652094 -131.17131239 352.57121571 -131.17077102 351.77241638 C-131.16816093 347.88291106 -131.16563352 343.99340571 -131.16314721 340.10390031 C-131.14241611 307.84008189 -131.1071918 275.57629444 -131.0625 243.3125 C-135.39007812 243.76915718 -139.71658294 244.2353172 -144.04296875 244.703125 C-145.26109253 244.83154785 -146.47921631 244.9599707 -147.73425293 245.09228516 C-164.02713145 246.86618436 -184.12012975 250.72974342 -195.0625 264.3125 C-202.23787097 276.15580461 -204.05525137 288.75630357 -201.484375 302.375 C-200.54683043 305.17058744 -199.40658529 307.68693066 -198.0625 310.3125 C-197.49917969 311.42753906 -196.93585938 312.54257812 -196.35546875 313.69140625 C-191.82948094 322.27016433 -186.48140128 330.27829161 -181.0625 338.3125 C-167.43859957 358.51209804 -154.9454909 378.64190714 -154.6875 403.6875 C-154.67348145 404.63947266 -154.65946289 405.59144531 -154.64501953 406.57226562 C-154.68171825 411.89828529 -155.05890215 415.72306096 -158.0625 420.3125 C-161.84751499 423.75342272 -165.77810657 423.82138729 -170.6875 423.66796875 C-174.10655475 423.15623523 -175.79000658 421.8690551 -178.0625 419.3125 C-179.77361045 416.42570811 -180.30903749 414.31016726 -180.3359375 410.96875 C-180.35342041 410.14084961 -180.37090332 409.31294922 -180.38891602 408.45996094 C-180.40494873 407.58629883 -180.42098145 406.71263672 -180.4375 405.8125 C-180.7398679 397.65512416 -181.68131691 390.82959454 -185.0625 383.3125 C-185.743125 381.69794922 -185.743125 381.69794922 -186.4375 380.05078125 C-191.39582927 368.97243971 -198.35411938 359.05217702 -205.04760742 348.97729492 C-220.76234144 325.30048511 -232.86370217 303.16355922 -227.33984375 273.765625 C-223.14143892 257.10798642 -214.32782586 244.03885854 -200.0625 234.3125 C-180.73482329 222.76802044 -157.89935914 217.56225848 -135.47558594 218.63305664 C-126.24815978 219.00348382 -119.50033204 219.18780548 -112.37109375 212.62890625 C-111.60925781 211.86449219 -110.84742187 211.10007813 -110.0625 210.3125 C-108.34122178 208.96899845 -106.61167191 207.63604291 -104.875 206.3125 C-78.31384131 184.19720049 -57.12456962 154.52475128 -53.7722168 119.25878906 C-53.13525921 110.56464627 -53.00846323 101.92791639 -53.0703125 93.2109375 C-53.08204247 91.45074783 -53.08204247 91.45074783 -53.0940094 89.65499878 C-53.13062977 84.76594225 -53.17258294 79.87709616 -53.23388672 74.98828125 C-53.48954861 53.36330708 -53.17493261 32.84343735 -37.0625 16.3125 C-26.15247333 6.91475426 -14.61756533 -0.0599572 0 0 Z " fill="#010002" transform="translate(231.0625,-0.3125)"/>
<path d="M0 0 C2.19597943 1.63889791 4.20596477 3.34143473 6.19921875 5.21875 C7.06546875 6.0025 7.93171875 6.78625 8.82421875 7.59375 C20.17591335 20.14035982 25.7561404 32.59744774 25.4453125 49.6015625 C24.77264814 59.48866092 22.22054569 72.40795897 14.77218628 79.59588623 C9.33507158 84.87678921 9.01665411 90.21143302 8.4765625 97.5234375 C8.30990334 99.3404567 8.30990334 99.3404567 8.13987732 101.19418335 C7.84301977 104.4772059 7.56920139 107.76117351 7.30498505 111.04695129 C7.02194792 114.48982743 6.70762883 117.92982145 6.39501953 121.37011719 C5.95154846 126.27412227 5.51576477 131.1786693 5.09122849 136.08435059 C4.03952954 148.22477625 2.82793577 160.34769831 1.57421875 172.46875 C1.47116425 173.46578949 1.36810974 174.46282898 1.26193237 175.49008179 C0.76581412 180.27916361 0.26559254 185.06778809 -0.23925781 189.85595703 C-0.60969313 193.37429867 -0.97089658 196.89337599 -1.32324219 200.41357422 C-1.71941178 204.36523502 -2.1358961 208.31417239 -2.57000732 212.26184082 C-2.72102284 213.66511486 -2.86490604 215.06917935 -3.00079346 216.47399902 C-4.26454089 229.44868576 -4.26454089 229.44868576 -9.80078125 234.21875 C-14.869171 237.49880085 -21.14379493 236.59068778 -26.96264648 236.58935547 C-29.09636059 236.59371542 -31.22798147 236.63001849 -33.36132812 236.66796875 C-46.8058887 236.78839196 -46.8058887 236.78839196 -51.80078125 232.21875 C-54.1976927 226.75776376 -55.37895901 221.76885547 -55.99584961 215.8671875 C-56.13317253 214.67434143 -56.13317253 214.67434143 -56.27326965 213.45739746 C-56.57233831 210.83719656 -56.85662288 208.21562323 -57.140625 205.59375 C-57.35012392 203.72793359 -57.560474 201.86221258 -57.7716217 199.99658203 C-58.32681611 195.06789858 -58.86919428 190.1378824 -59.40924072 185.20751953 C-59.83871645 181.30646828 -60.27739221 177.40648069 -60.71660423 173.5065155 C-63.22891973 151.19140506 -65.58937616 128.86369969 -67.78149891 106.51486206 C-67.99637658 104.3293988 -68.2134921 102.14416897 -68.43118286 99.95898438 C-68.65280528 97.71622626 -68.86879544 95.47288516 -69.07345581 93.22851562 C-69.57565124 88.02139431 -70.61550966 85.40989683 -73.80078125 81.21875 C-84.10996833 66.54613956 -86.65200663 52.9681543 -84.80078125 35.21875 C-83.90166669 30.51946324 -82.0813842 26.4119221 -79.80078125 22.21875 C-79.35476562 21.33316406 -78.90875 20.44757813 -78.44921875 19.53515625 C-72.96805207 9.47614366 -64.96264712 2.33666207 -54.80078125 -2.78125 C-53.90488281 -3.26851562 -53.00898438 -3.75578125 -52.0859375 -4.2578125 C-35.69913386 -11.96671619 -15.05736728 -9.57623359 0 0 Z " fill="#010103" transform="translate(233.80078125,237.78125)"/>
<path d="M0 0 C0.78681152 0.00757324 1.57362305 0.01514648 2.38427734 0.02294922 C13.82911622 0.34497488 22.25278477 4.56812109 30.31640625 12.54296875 C37.05213105 19.75007024 42.11809095 27.85111892 42.22531128 38.02549744 C42.12501617 39.27641678 42.02472107 40.52733612 41.92138672 41.81616211 C41.86833815 42.50665366 41.81528957 43.19714521 41.76063347 43.90856075 C41.58670922 46.08675466 41.39119253 48.26189959 41.1875 50.4375 C41.12388527 51.12178699 41.06027054 51.80607399 40.99472809 52.51109695 C40.52294041 57.47199706 39.98861228 62.425411 39.4453125 67.37890625 C39.27432442 68.96001105 39.10358445 70.54114271 38.93307495 72.12229919 C38.57729051 75.41422307 38.21905264 78.70586714 37.85888672 81.99731445 C37.40538912 86.14281249 36.95732255 90.28887515 36.51092052 94.43514252 C33.41778257 123.13763061 33.41778257 123.13763061 31.71484375 135.66015625 C30.28518992 146.18785441 29.13735845 156.74267949 27.99609375 167.3046875 C27.89991257 168.19330664 27.80373138 169.08192577 27.70463562 169.99747276 C26.80361567 178.32696442 25.90834532 186.65706833 25.01879883 194.98779297 C24.52685837 199.59242146 24.02996825 204.19649449 23.53007698 208.80026627 C23.34280199 210.53425894 23.15740942 212.2684561 22.97402763 214.00286484 C20.46367145 237.73879581 20.46367145 237.73879581 16.1875 241.4375 C10.95509526 244.92576983 7.17347464 244.6541073 1 244.6875 C-0.40088867 244.7184375 -0.40088867 244.7184375 -1.83007812 244.75 C-7.61051945 244.78254295 -11.76442908 244.3445603 -16.8125 241.4375 C-19.50815936 238.47733793 -20.29748427 236.18569853 -20.828125 232.25 C-20.98474609 231.08855469 -21.14136719 229.92710937 -21.30273438 228.73046875 C-21.47568055 227.29984153 -21.6453024 225.86881045 -21.8125 224.4375 C-21.91119385 223.59525879 -22.0098877 222.75301758 -22.11157227 221.88525391 C-22.97498704 214.40759458 -23.77089251 206.92304256 -24.5625 199.4375 C-24.69188965 198.22376709 -24.8212793 197.01003418 -24.95458984 195.75952148 C-27.27815484 173.9573498 -29.44136504 152.14073665 -31.54833984 130.31665039 C-32.79248261 117.48137601 -34.09596561 104.65612897 -35.5234375 91.83984375 C-35.66356262 90.57334991 -35.80368774 89.30685608 -35.94805908 88.00198364 C-36.61289198 82.00091556 -37.28845585 76.00144828 -37.984375 70.00390625 C-39.10849427 60.08684242 -40.04667256 50.24946928 -40.09765625 40.26171875 C-40.10718826 39.06040565 -40.10718826 39.06040565 -40.11691284 37.83482361 C-40.0077677 27.02618434 -35.63579852 19.30406713 -28.20703125 11.62890625 C-19.91511774 4.04038508 -11.29130165 -0.15320956 0 0 Z " fill="#020103" transform="translate(321.8125,229.5625)"/>
<path d="M0 0 C5.94 0 11.88 0 18 0 C18.99 3.465 18.99 3.465 20 7 C21.03522298 8.96751536 21.03522298 8.96751536 23 10 C25.54575971 10.57214577 27.98871072 11.00994455 30.5625 11.375 C40.99967567 13.13404823 48.08296267 16.25986413 55.2109375 24.328125 C66.4785013 41.1556657 61 52.15174458 61 76 C26.02 76 -8.96 76 -45 76 C-45 30.35294118 -45 30.35294118 -34.75 19.5 C-27.19611287 13.43171067 -19.49520491 11.61463629 -9.98046875 10.6875 C-6.32191309 9.84358677 -4.60639935 8.69282446 -2 6 C-1.34 4.02 -0.68 2.04 0 0 Z " fill="#FEFEFE" transform="translate(248,12)"/>
<path d="M0 0 C5.2205047 2.86774339 8.00200012 6.67260969 9.8125 12.3125 C9.84090424 15.38432026 9.84090424 15.38432026 9.52966309 18.77351379 C9.4195842 20.01336847 9.30950531 21.25322315 9.1960907 22.53064919 C9.0062133 24.40266534 9.0062133 24.40266534 8.8125 26.3125 C8.70134354 27.42302923 8.59018707 28.53355846 8.47566223 29.6777401 C8.11601297 33.09972116 7.73056701 36.51793546 7.33789062 39.9362793 C7.19304733 41.21787933 7.04820404 42.49947937 6.89897156 43.81991577 C6.58746004 46.57599116 6.27416538 49.33185542 5.95939636 52.08756065 C5.46044602 56.45581527 4.96563844 60.8245335 4.47131348 65.1933136 C3.68850866 72.10735764 2.90298913 79.02109003 2.11628389 85.93469125 C0.70799776 98.31125909 -0.69631092 110.68827814 -2.09858751 123.06552821 C-2.5895462 127.39795257 -3.08191119 131.73021402 -3.5754776 136.06234205 C-3.80875149 138.11124403 -4.0414748 140.1602077 -4.27397156 142.209198 C-4.55579405 144.69258667 -4.8384847 147.17587706 -5.12226868 149.65904236 C-5.24841049 150.77301392 -5.37455231 151.88698547 -5.5045166 153.03471375 C-5.62390091 154.08742147 -5.74328522 155.1401292 -5.86628723 156.22473717 C-6.27667946 160.16976671 -6.56816803 164.12076778 -6.82527924 168.07859516 C-7.1875 170.3125 -7.1875 170.3125 -9.1875 173.3125 C-9.3016777 172.16628174 -9.41585541 171.02006348 -9.53349304 169.83911133 C-10.6345258 158.78740944 -11.73673078 147.73582494 -12.83995342 136.68434143 C-13.4064625 131.00901629 -13.97262226 125.33365685 -14.5378418 119.65820312 C-15.0848883 114.16541409 -15.63300632 108.67273282 -16.18176651 103.18011475 C-16.40213738 100.972671 -16.62215512 98.76519198 -16.84182358 96.55767822 C-18.06025147 84.3171047 -19.30982927 72.0810476 -20.63525391 59.8515625 C-20.86995538 57.6685489 -21.10456077 55.48552497 -21.33906555 53.30249023 C-21.77666374 49.23059415 -22.22501102 45.16008885 -22.67985535 41.09008789 C-25.9340018 11.31562642 -25.9340018 11.31562642 -22.1875 5.0625 C-16.15133386 -1.4340517 -8.19925356 -3.71315549 0 0 Z " fill="#E7E7E5" transform="translate(330.1875,254.6875)"/>
<path d="M0 0 C6.91064648 5.00586325 12.89603652 11.99986439 14.57421875 20.55859375 C15.37911214 30.74415375 14.10986502 39.43319568 7.57421875 47.55859375 C0.45404741 55.09176806 -6.91153878 58.66870839 -17.30078125 59.18359375 C-26.86376072 58.86136292 -34.2739032 55.19479153 -40.92578125 48.37109375 C-46.63908117 41.26517697 -49.18900161 33.35876528 -48.8125 24.2578125 C-47.64955278 16.14067586 -43.7651606 8.20918273 -37.45703125 2.90234375 C-26.02586408 -5.30877633 -12.41681937 -7.37811006 0 0 Z " fill="#E8E8E6" transform="translate(220.42578125,257.44140625)"/>
<path d="M0 0 C5.94 0 11.88 0 18 0 C16.32110126 20.69905424 14.15492797 41.34625446 12 62 C10.35 62 8.7 62 7 62 C6.32196236 56.38507344 5.64666213 50.76982596 4.97363281 45.15429688 C4.74549905 43.2538212 4.51668497 41.35342704 4.28710938 39.453125 C2.70047426 26.31467284 1.2789728 13.17222458 0 0 Z " fill="#5DBCF4" transform="translate(195,388)"/>
<path d="M0 0 C1.01126953 0.24363281 1.01126953 0.24363281 2.04296875 0.4921875 C5.51145169 1.08783186 8.79341189 1.13218915 12.3125 1.125 C13.56675781 1.12757813 14.82101563 1.13015625 16.11328125 1.1328125 C20.09115144 0.99688528 24.05054365 0.49368204 28 0 C27.34 8.58 26.68 17.16 26 26 C18.08 26 10.16 26 2 26 C1.67 23.009375 1.34 20.01875 1 16.9375 C0.89558594 16.00929443 0.79117188 15.08108887 0.68359375 14.12475586 C0.17296005 9.38366378 -0.1035131 4.76807198 0 0 Z " fill="#5DBBF4" transform="translate(190,338)"/>
</svg>
